<svg width="189" height="68" viewBox="0 0 189 68" fill="none" xmlns="http://www.w3.org/2000/svg">
<g clip-path="url(#clip0_20_218)">
<path d="M110.598 43.2661C109.126 44.0003 106.186 44.7371 102.417 44.7371C93.6857 44.7371 87.1118 39.2242 87.1118 29.0707C87.1118 18.9173 93.683 12.8057 103.289 12.8057C107.151 12.8057 109.587 13.6319 110.644 14.1846L109.679 17.4462C108.161 16.7121 106.002 16.1595 103.427 16.1595C96.1652 16.1595 91.3417 20.8 91.3417 28.9326C91.3417 36.5125 95.7072 41.3833 103.246 41.3833C105.682 41.3833 108.164 40.8767 109.771 40.0965L110.598 43.2661Z" fill="white"/>
<path d="M131.463 29.7589H119.421V40.9228H132.84V44.2766H115.421V13.3096H132.151V16.6634H119.421V26.4511H131.463V29.7589Z" fill="white"/>
<path d="M137.85 13.7241C139.871 13.3096 142.768 13.082 145.524 13.082C149.797 13.082 152.556 13.8622 154.485 15.6096C156.049 16.9885 156.921 19.1015 156.921 21.4909C156.921 25.5788 154.347 28.2906 151.085 29.3932V29.5313C153.475 30.3576 154.9 32.5627 155.634 35.7811C156.645 40.0993 157.382 43.0874 158.024 44.282H153.889C153.382 43.4097 152.694 40.744 151.822 36.8836C150.903 32.6115 149.247 31.0023 145.616 30.8642H141.847V44.2793H137.847V13.7241H137.85ZM141.847 27.83H145.936C150.209 27.83 152.922 25.4867 152.922 21.9487C152.922 17.9502 150.028 16.2056 145.798 16.1595C143.868 16.1595 142.489 16.3437 141.847 16.5279V27.83Z" fill="white"/>
<path d="M189 28.472C189 39.1321 182.521 44.7832 174.616 44.7832C166.712 44.7832 160.691 38.444 160.691 29.0707C160.691 19.2396 166.804 12.8057 175.074 12.8057C183.345 12.8057 189 19.283 189 28.472ZM164.964 28.9786C164.964 35.5941 168.549 41.5215 174.844 41.5215C181.139 41.5215 184.77 35.6862 184.77 28.6563C184.77 22.4986 181.554 16.0673 174.89 16.0673C168.227 16.0673 164.964 22.1789 164.964 28.9786Z" fill="white"/>
<path d="M80.0148 32.9152C81.7927 32.9152 83.234 31.4743 83.234 29.6969C83.234 27.9194 81.7927 26.4785 80.0148 26.4785C78.2369 26.4785 76.7956 27.9194 76.7956 29.6969C76.7956 31.4743 78.2369 32.9152 80.0148 32.9152Z" fill="white"/>
<path d="M58.2931 20.6534C58.2931 23.5927 60.2062 25.042 64.55 26.7217C66.5011 27.4748 68.0998 28.2983 69.3436 29.2654V17.0152C68.1865 16.5032 66.4306 15.9424 64.2221 15.9424C59.9271 15.9424 58.2931 18.5106 58.2931 20.6561V20.6534Z" fill="white"/>
<path d="M24.0223 13.5127C26.4964 13.1388 29.4392 12.8598 32.6611 12.8598C38.498 12.8598 42.6522 14.2143 45.408 16.7798C48.2099 19.348 49.844 22.9889 49.844 28.0765C49.844 33.1641 48.256 37.4118 45.3159 40.3051C43.4488 42.1716 40.8095 43.4909 37.5686 44.2061H56.2282C55.1497 43.8729 54.2067 43.4638 53.532 43.0114L54.559 39.6034C56.38 40.7223 59.041 41.6569 61.8429 41.6569C65.997 41.6569 68.425 39.4626 68.425 36.2903C68.425 33.3483 66.7449 31.6687 62.496 30.0351C57.3609 28.2146 54.185 25.5544 54.185 21.1197C54.185 16.219 58.247 12.5781 64.363 12.5781C66.371 12.5781 68.0348 12.8679 69.3436 13.2797V0H2.42798V44.2061H24.0223V13.5127Z" fill="white"/>
<path d="M66.6365 44.2066H69.3436V42.7383C68.5795 43.3316 67.6771 43.83 66.6365 44.2066Z" fill="white"/>
<path d="M45.595 28.2146C45.6411 20.7919 41.4409 16.0781 32.8481 16.0781C30.748 16.0781 29.1601 16.265 28.087 16.498V41.3318C29.114 41.5187 30.6071 41.5648 32.1951 41.5648C40.8799 41.5648 45.595 36.7102 45.595 28.2146Z" fill="white"/>
<path d="M5.09983 61.1754L5.52798 63.8709H7.07798L4.44135 50.1875H2.6556L0 63.8709H1.55L1.97815 61.1754H5.09983ZM3.52815 51.5366L4.88847 59.913H2.16784L3.52815 51.5366Z" fill="white"/>
<path d="M16.4999 58.5339V56.0524C16.4999 55.3724 16.1639 55.1367 15.3401 55.2261C15.2317 55.237 15.1261 55.2532 15.0258 55.2776L12.7983 55.6271V55.2478H11.2565V63.8734H12.7983V56.4804L14.958 56.4317V58.5393H16.4999V58.5339Z" fill="white"/>
<path d="M26.117 60.9368H24.632V62.6841H22.2312V56.4344H24.632V58.0138H26.117V56.1093C26.117 55.5052 25.8542 55.2451 25.2336 55.2451H21.6242C20.9928 55.2451 20.7245 55.5025 20.7245 56.1093V63.0065C20.7245 63.6106 20.9928 63.8707 21.6242 63.8707H25.2336C25.8514 63.8707 26.117 63.6133 26.117 63.0065V60.9341V60.9368Z" fill="white"/>
<path d="M36.2326 63.8714V56.0531C36.2326 55.3732 35.8966 55.1375 35.0728 55.2269C34.9645 55.2377 34.8588 55.254 34.7585 55.2784L32.1978 55.6197V50.207H30.6559V63.8714H32.1978V56.4757L34.6935 56.427V63.8687H36.2354L36.2326 63.8714Z" fill="white"/>
<path d="M42.3541 51.7891H40.8122V53.3847H42.3541V51.7891Z" fill="white"/>
<path d="M42.3351 55.248H40.8312V63.8736H42.3351V55.248Z" fill="white"/>
<path d="M48.3265 63.8708H50.3696V62.6463H48.9741V56.4697H50.3127V55.2452H48.9741V52.7529H47.4322V55.2452H46.4459V56.4697H47.4322V63.0066C47.4322 63.6108 47.6978 63.8708 48.3238 63.8708H48.3265Z" fill="white"/>
<path d="M59.9461 61.3651H58.499V62.8902H56.0033V59.783H59.5287L59.9461 59.3658V56.1122C59.9461 55.5081 59.6778 55.248 59.0464 55.248H55.4559C54.8245 55.248 54.5563 55.5054 54.5563 56.1122V63.0094C54.5563 63.6136 54.8245 63.8736 55.4559 63.8736H59.0464C59.6778 63.8736 59.9461 63.6163 59.9461 63.0094V61.3651ZM56.0033 56.2287H58.499V58.9648H56.0033V56.2287Z" fill="white"/>
<path d="M69.8964 60.9368H68.4115V62.6841H66.0106V56.4344H68.4115V58.0138H69.8964V56.1093C69.8964 55.5052 69.6336 55.2451 69.013 55.2451H65.4036C64.7722 55.2451 64.5039 55.5025 64.5039 56.1093V63.0065C64.5039 63.6106 64.7722 63.8707 65.4036 63.8707H69.013C69.6309 63.8707 69.8964 63.6133 69.8964 63.0065V60.9341V60.9368Z" fill="white"/>
<path d="M75.8336 63.8708H77.8768V62.6463H76.4812V56.4697H77.8199V55.2452H76.4812V52.7529H74.9394V55.2452H73.953V56.4697H74.9394V63.0066C74.9394 63.6108 75.2049 63.8708 75.8309 63.8708H75.8336Z" fill="white"/>
<path d="M87.6212 63.8707V55.2451H86.0793V62.6408L83.6026 62.6896V55.2478H82.0607V63.0661C82.0607 63.6702 82.3181 63.9303 82.9197 63.9303C83.0118 63.9303 83.1121 63.9249 83.2259 63.914C83.3397 63.9032 83.4535 63.8842 83.5701 63.8626L86.0793 63.5212V63.8761H87.6212V63.8707Z" fill="white"/>
<path d="M97.4252 58.5339V56.0524C97.4252 55.3724 97.0919 55.1367 96.2654 55.2261C96.157 55.237 96.0514 55.2559 95.9511 55.2776L93.7236 55.6271V55.2478H92.1818V63.8734H93.7236V56.4804L95.8833 56.4317V58.5393H97.4252V58.5339Z" fill="white"/>
<path d="M107.04 61.3651H105.593V62.8902H103.097V59.783H106.622L107.04 59.3658V56.1122C107.04 55.5081 106.771 55.248 106.14 55.248H102.549C101.918 55.248 101.65 55.5054 101.65 56.1122V63.0094C101.65 63.6136 101.918 63.8736 102.549 63.8736H106.14C106.771 63.8736 107.04 63.6163 107.04 63.0094V61.3651ZM103.097 56.2287H105.593V58.9648H103.097V56.2287Z" fill="white"/>
<path d="M125.323 56.1209H120.767L119.613 55.3217V51.4694H122.851V53.9238H124.393V51.2338C124.393 50.5159 124.09 50.207 123.38 50.207H119.066C118.356 50.207 118.052 50.5104 118.052 51.2202V54.9804C118.052 55.2784 118.096 55.4274 118.133 55.4978C118.171 55.5709 118.264 55.6955 118.486 55.8635L119.748 56.7304L118.459 57.6217C118.207 57.8194 118.12 57.9495 118.093 58.0064C118.058 58.0795 118.017 58.2285 118.017 58.5292V62.8555C118.017 63.5626 118.32 63.866 119.03 63.866H124.32V57.3779H125.325V56.1154L125.323 56.1209ZM122.797 62.6117H119.559V58.2014L120.71 57.386H122.797V62.6144V62.6117Z" fill="white"/>
<path d="M142.527 52.6336C142.527 51.8832 142.316 51.3034 141.879 50.8619C141.446 50.423 140.844 50.209 140.045 50.209H135.983V63.8734H140.045C140.833 63.8734 141.432 63.6621 141.874 63.2259C142.313 62.7925 142.527 62.2154 142.527 61.465V52.6336ZM140.931 61.1264C140.931 61.5734 140.795 61.9337 140.527 62.2046C140.259 62.4755 139.866 62.611 139.359 62.611H137.563V51.4714H139.413C139.866 51.4714 140.235 51.5987 140.508 51.8507C140.787 52.108 140.931 52.4737 140.931 52.937V61.1291V61.1264Z" fill="white"/>
<path d="M152.496 61.3651H151.049V62.8902H148.554V59.783H152.079L152.496 59.3658V56.1122C152.496 55.5081 152.228 55.248 151.597 55.248H148.006C147.375 55.248 147.107 55.5054 147.107 56.1122V63.0094C147.107 63.6136 147.375 63.8736 148.006 63.8736H151.597C152.228 63.8736 152.496 63.6163 152.496 63.0094V61.3651ZM148.554 56.2287H151.049V58.9648H148.554V56.2287Z" fill="white"/>
<path d="M162.279 60.7393C162.279 60.5225 162.241 60.36 162.168 60.2489C162.092 60.1352 161.967 60.0376 161.802 59.9618L158.466 58.014V56.2666H160.832V57.6808H162.262V56.1122C162.262 55.5081 162 55.248 161.382 55.248H157.921C157.29 55.248 157.022 55.5054 157.022 56.1122V58.2497C157.022 58.4528 157.057 58.6045 157.13 58.7075C157.211 58.8213 157.339 58.9242 157.509 59.0163L160.834 60.9804V62.855H158.469V61.3109H157.022V63.0122C157.022 63.6163 157.285 63.8763 157.902 63.8763H161.398C162.016 63.8763 162.281 63.619 162.281 63.0122V60.7447L162.279 60.7393Z" fill="white"/>
<path d="M168.362 51.7891H166.82V53.3847H168.362V51.7891Z" fill="white"/>
<path d="M168.341 55.248H166.837V63.8736H168.341V55.248Z" fill="white"/>
<path d="M178.478 55.2484H176.936V55.6385L175.042 55.2809C174.925 55.2593 174.803 55.2403 174.679 55.2295C174.061 55.1726 173.595 55.2674 173.286 55.5789C173.039 55.8255 172.92 56.1722 172.92 56.6327V62.2486C172.92 62.7362 173.058 63.1128 173.34 63.3972C173.622 63.6817 174.015 63.8198 174.538 63.8198H176.939V66.258H174.557V65.1608H173.091V66.3582C173.091 66.9623 173.359 67.2224 173.99 67.2224H177.586C178.215 67.2224 178.481 66.965 178.481 66.3582V55.2484H178.478ZM176.936 62.6847H175.405C174.803 62.6847 174.459 62.3353 174.459 61.7257V57.3371C174.459 56.7384 174.798 56.3971 175.386 56.3971H175.595C175.69 56.3971 175.779 56.4052 175.858 56.4214L176.933 56.5379V62.6874L176.936 62.6847Z" fill="white"/>
<path d="M188.615 63.8705V56.0523C188.615 55.459 188.358 55.207 187.751 55.207C187.659 55.207 187.556 55.2125 187.442 55.2233C187.328 55.2341 187.212 55.2531 187.095 55.2748L184.578 55.6161V55.2423H183.036V63.8678H184.578V56.4722L187.073 56.4234V63.8651H188.615V63.8705Z" fill="white"/>
</g>
<defs>
<clipPath id="clip0_20_218">
<rect width="189" height="67.2194" fill="white"/>
</clipPath>
</defs>
</svg>
