<svg width="109" height="26" viewBox="0 0 109 26" fill="none" xmlns="http://www.w3.org/2000/svg">
<g clip-path="url(#clip0_3_39)">
<path d="M63.1953 25.1192C62.3357 25.5455 60.618 25.9733 58.4159 25.9733C53.315 25.9733 49.4744 22.7726 49.4744 16.8777C49.4744 10.9829 53.3134 7.43464 58.9256 7.43464C61.1816 7.43464 62.6048 7.91434 63.2223 8.2352L62.6587 10.1289C61.7721 9.70262 60.5104 9.38177 59.0064 9.38177C54.7636 9.38177 51.9456 12.076 51.9456 16.7975C51.9456 21.1982 54.496 24.0261 58.9003 24.0261C60.3235 24.0261 61.7737 23.732 62.7125 23.2791L63.1953 25.1192Z" fill="black"/>
<path d="M75.3838 17.2772H68.3484V23.7588H76.1881V25.7059H66.0117V7.72718H75.786V9.67431H68.3484V15.3568H75.3838V17.2772Z" fill="black"/>
<path d="M79.1169 7.96782C80.2979 7.72718 81.9902 7.59506 83.6003 7.59506C86.0969 7.59506 87.7085 8.04803 88.8357 9.06249C89.7492 9.86304 90.2589 11.0898 90.2589 12.477C90.2589 14.8504 88.7549 16.4248 86.8489 17.0649V17.1451C88.2452 17.6248 89.0779 18.9051 89.5069 20.7736C90.0974 23.2806 90.5281 25.0154 90.9033 25.709H88.4874C88.1914 25.2026 87.7892 23.6549 87.2795 21.4137C86.7428 18.9334 85.7755 17.9992 83.6541 17.9189H81.452V25.7075H79.1153V7.96782H79.1169ZM81.452 16.1574H83.8409C86.3375 16.1574 87.9222 14.7969 87.9222 12.7428C87.9222 10.4214 86.2314 9.4085 83.7602 9.38177C82.633 9.38177 81.8272 9.48872 81.452 9.59567V16.1574Z" fill="black"/>
<path d="M109 16.5302C109 22.7191 105.215 26 100.597 26C95.9788 26 92.4611 22.3196 92.4611 16.8777C92.4611 11.17 96.0326 7.43464 100.864 7.43464C105.696 7.43464 109 11.1952 109 16.5302ZM94.9576 16.8243C94.9576 20.6651 97.0521 24.1063 100.73 24.1063C104.407 24.1063 106.529 20.7185 106.529 16.6371C106.529 13.0621 104.65 9.32829 100.757 9.32829C96.8637 9.32829 94.9576 12.8765 94.9576 16.8243Z" fill="black"/>
<path d="M45.3281 19.1096C46.3669 19.1096 47.2089 18.273 47.2089 17.2411C47.2089 16.2091 46.3669 15.3726 45.3281 15.3726C44.2894 15.3726 43.4474 16.2091 43.4474 17.2411C43.4474 18.273 44.2894 19.1096 45.3281 19.1096Z" fill="black"/>
<path d="M32.6378 11.991C32.6378 13.6975 33.7555 14.539 36.2932 15.5141C37.4331 15.9514 38.3671 16.4295 39.0938 16.991V9.87877C38.4178 9.58151 37.3919 9.25594 36.1017 9.25594C33.5924 9.25594 32.6378 10.747 32.6378 11.9926V11.991Z" fill="black"/>
<path d="M12.616 7.84514C14.0613 7.62809 15.7806 7.46609 17.663 7.46609C21.073 7.46609 23.5 8.25249 25.11 9.74194C26.747 11.233 27.7016 13.3468 27.7016 16.3005C27.7016 19.2542 26.7739 21.7204 25.0562 23.4002C23.9654 24.4838 22.4234 25.2498 20.53 25.665H31.4314C30.8014 25.4715 30.2504 25.234 29.8562 24.9714L30.4562 22.9928C31.5201 23.6424 33.0747 24.185 34.7117 24.185C37.1386 24.185 38.5571 22.911 38.5571 21.0693C38.5571 19.3612 37.5756 18.3861 35.0932 17.4377C32.0932 16.3807 30.2378 14.8362 30.2378 12.2616C30.2378 9.41637 32.6109 7.30252 36.184 7.30252C37.3571 7.30252 38.3291 7.47081 39.0938 7.70988V0H0V25.665H12.616V7.84514Z" fill="black"/>
<path d="M37.5122 25.665H39.0938V24.8125C38.6473 25.157 38.1202 25.4464 37.5122 25.665Z" fill="black"/>
<path d="M25.2177 16.3807C25.2446 12.0713 22.7907 9.33458 17.7706 9.33458C16.5437 9.33458 15.616 9.44311 14.9891 9.57837V23.9963C15.5891 24.1048 16.4614 24.1315 17.3891 24.1315C22.463 24.1315 25.2177 21.313 25.2177 16.3807Z" fill="black"/>
</g>
<defs>
<clipPath id="clip0_3_39">
<rect width="109" height="26" fill="white"/>
</clipPath>
</defs>
</svg>
